<?xml version="1.0" encoding="UTF-8" standalone="no"?>
<!DOCTYPE svg PUBLIC "-//W3C//DTD SVG 1.1//EN" "http://www.w3.org/Graphics/SVG/1.1/DTD/svg11.dtd">
<svg width="100%" height="100%" viewBox="0 0 635 282" versixmlns="http://www.w3.org/2000/svg" xmlns:xlink="http://www.w3.org/1999/xlink" xml:space="preserve" xmlns:serif="http://www.serif.com/" style="fill-rule:evenodd;clip-rule:evenodd;stroke-linejoin:round;stroke-miterlimit:2;"on="1.1">
    <path d="M0,141C0,64.03 138.874,1.465 311.418,0.025L311.418,0L324.393,0L324.393,0.033C496.561,1.661 635,64.151 635,141C635,218.872 492.85,282 317.5,282C142.15,282 0,218.872 0,141ZM600.65,186.945C613.073,173.901 619.92,160.628 621.608,147.483L530.972,147.483C529.644,166.856 522.39,185.21 510.379,201.776L583.889,201.776C590.232,196.961 595.832,192.004 600.65,186.945ZM564.407,214.741L499.675,214.741C483.203,232.421 460.985,247.52 434.737,258.905C473.422,251.918 508.035,241.6 536.737,228.854C546.774,224.396 556.014,219.675 564.407,214.741ZM493.88,201.776C508.108,185.129 516.423,166.627 517.959,147.483L424.844,147.483C424.176,166.856 420.528,185.21 414.488,201.776L493.88,201.776ZM409.106,214.741L481.178,214.741C475.255,220.059 468.669,225.122 461.454,229.883C436.596,246.285 404.882,258.596 369.087,264.719C385.509,252.904 399.323,235.622 409.106,214.741ZM400.597,201.776C407.106,185.557 411.131,167.16 411.86,147.483L324.393,147.483L324.393,201.776L400.597,201.776ZM324.393,214.741L394.629,214.741C391.214,221.264 387.368,227.324 383.159,232.847C367.232,253.746 346.564,266.495 324.393,268.694L324.393,214.741ZM311.418,201.776L311.418,147.483L223.14,147.483C223.869,167.16 227.894,185.557 234.403,201.776L311.418,201.776ZM240.371,214.741L311.418,214.741L311.418,268.769C288.94,266.805 267.962,254.001 251.841,232.847C247.632,227.324 243.786,221.264 240.371,214.741ZM220.512,201.776C214.472,185.21 210.824,166.856 210.156,147.483L117.041,147.483C118.577,166.627 126.892,185.129 141.12,201.776L220.512,201.776ZM153.822,214.741L225.894,214.741C235.677,235.623 249.491,252.904 265.913,264.719C230.118,258.596 198.404,246.285 173.546,229.883C166.331,225.122 159.745,220.059 153.822,214.741ZM124.621,201.776C112.61,185.21 105.356,166.856 104.028,147.483L13.392,147.483C15.08,160.628 21.927,173.901 34.35,186.945C39.168,192.004 44.768,196.961 51.111,201.776L124.621,201.776ZM70.593,214.741L135.325,214.741C151.797,232.421 174.015,247.52 200.263,258.905C161.578,251.918 126.965,241.6 98.263,228.854C88.226,224.396 78.986,219.675 70.593,214.741ZM600.65,95.055C613.073,108.099 619.92,121.372 621.608,134.517L530.972,134.517C529.644,115.144 522.39,96.79 510.379,80.224L583.889,80.224C590.232,85.039 595.832,89.996 600.65,95.055ZM564.407,67.259C556.014,62.325 546.774,57.604 536.737,53.146C508.035,40.4 473.422,30.082 434.737,23.095C460.985,34.481 483.203,49.579 499.675,67.259L564.407,67.259ZM481.178,67.259C475.255,61.941 468.669,56.878 461.454,52.117C436.596,35.715 404.882,23.404 369.087,17.281C385.509,29.097 399.323,46.378 409.106,67.259L481.178,67.259ZM414.488,80.224C420.528,96.79 424.176,115.144 424.844,134.517L517.959,134.517C516.423,115.373 508.108,96.871 493.88,80.224L414.488,80.224ZM400.597,80.224C407.106,96.443 411.131,114.84 411.86,134.517L324.393,134.517L324.393,80.224L400.597,80.224ZM223.14,134.517L311.418,134.517L311.418,80.224L234.403,80.224C227.894,96.443 223.869,114.84 223.14,134.517ZM394.629,67.259L324.393,67.259L324.393,13.306C346.564,15.505 367.232,28.254 383.159,49.153C387.368,54.676 391.214,60.736 394.629,67.259ZM311.418,67.259L311.418,13.231C288.94,15.195 267.962,27.999 251.841,49.153C247.632,54.676 243.786,60.736 240.371,67.259L311.418,67.259ZM225.894,67.259C235.677,46.378 249.491,29.097 265.913,17.281C230.118,23.404 198.404,35.715 173.546,52.117C166.331,56.878 159.745,61.941 153.822,67.259L225.894,67.259ZM141.12,80.224C126.892,96.871 118.577,115.373 117.041,134.517L210.156,134.517C210.824,115.144 214.472,96.79 220.512,80.224L141.12,80.224ZM124.621,80.224C112.61,96.79 105.356,115.144 104.028,134.517L13.392,134.517C15.08,121.372 21.927,108.099 34.35,95.055C39.168,89.996 44.768,85.039 51.111,80.224L124.621,80.224ZM135.325,67.259C151.797,49.579 174.015,34.481 200.263,23.095C161.578,30.082 126.965,40.4 98.263,53.146C88.226,57.604 78.986,62.325 70.593,67.259L135.325,67.259Z" style="fill:white;"/>
</svg>
